HIERARCHY
ROOT Hips
{
  OFFSET 57.8838 95.319 338.509
  CHANNELS 6 Xposition Yposition Zposition Zrotation Xrotation Yrotation
  JOINT LeftUpLeg
  {
    OFFSET 8.64259 1.95398 -2.38835
    CHANNELS 3 Zrotation Xrotation Yrotation
    JOINT LeftLeg
    {
      OFFSET 43.7702 0 0
      CHANNELS 3 Zrotation Xrotation Yrotation
      JOINT LeftFoot
      {
        OFFSET 40.6238 0 0
        CHANNELS 3 Zrotation Xrotation Yrotation
        JOINT LeftToeBase
        {
          OFFSET 12.7242 0 0
          CHANNELS 3 Zrotation Xrotation Yrotation
          End Site
          {
            OFFSET 0 0 0
          }
        }
      }
    }
  }
  JOINT RightUpLeg
  {
    OFFSET -8.2249 1.95398 -2.59336
    CHANNELS 3 Zrotation Xrotation Yrotation
    JOINT RightLeg
    {
      OFFSET 43.5653 0 0
      CHANNELS 3 Zrotation Xrotation Yrotation
      JOINT RightFoot
      {
        OFFSET 40.6238 0 0
        CHANNELS 3 Zrotation Xrotation Yrotation
        JOINT RightToeBase
        {
          OFFSET 12.7242 0 0
          CHANNELS 3 Zrotation Xrotation Yrotation
          End Site
          {
            OFFSET 0 0 0
          }
        }
      }
    }
  }
  JOINT Spine
  {
    OFFSET 0.165834 0.87714 6.61349
    CHANNELS 3 Zrotation Xrotation Yrotation
    JOINT Spine1
    {
      OFFSET 7.38963 1.71661e-005 0
      CHANNELS 3 Zrotation Xrotation Yrotation
      JOINT Spine2
      {
        OFFSET 11.9445 1.14441e-005 0
        CHANNELS 3 Zrotation Xrotation Yrotation
        JOINT Spine3
        {
          OFFSET 14.7254 4.19617e-005 0
          CHANNELS 3 Zrotation Xrotation Yrotation
          JOINT Spine4
          {
            OFFSET 10.9679 0 0
            CHANNELS 3 Zrotation Xrotation Yrotation
            JOINT RightShoulder
            {
              OFFSET 2.46616 -1.6653 3.69651
              CHANNELS 3 Zrotation Xrotation Yrotation
              JOINT RightArm
              {
                OFFSET 13.0012 0 0
                CHANNELS 3 Zrotation Xrotation Yrotation
                JOINT RightForeArm
                {
                  OFFSET 28.7848 1.62311e-005 0
                  CHANNELS 3 Zrotation Xrotation Yrotation
                  JOINT RightHand
                  {
                    OFFSET 26.5688 1.62095e-005 0
                    CHANNELS 3 Zrotation Xrotation Yrotation
                    End Site
                    {
                      OFFSET 0 0 0
                    }
                  }
                }
              }
            }
            JOINT LeftShoulder
            {
              OFFSET 2.38034 -1.29275 -3.7523
              CHANNELS 3 Zrotation Xrotation Yrotation
              JOINT LeftArm
              {
                OFFSET 16.3182 6.07031e-005 0
                CHANNELS 3 Zrotation Xrotation Yrotation
                JOINT LeftForeArm
                {
                  OFFSET 27.0901 0 0
                  CHANNELS 3 Zrotation Xrotation Yrotation
                  JOINT LeftHand
                  {
                    OFFSET 24.5451 1.51738e-005 0
                    CHANNELS 3 Zrotation Xrotation Yrotation
                    End Site
                    {
                      OFFSET 0 0 0
                    }
                  }
                }
              }
            }
            JOINT Neck
            {
              OFFSET 5.0226 -0.0266342 0
              CHANNELS 3 Zrotation Xrotation Yrotation
              JOINT Head
              {
                OFFSET 6.69364 2.86102e-005 0
                CHANNELS 3 Zrotation Xrotation Yrotation
                End Site
                {
                  OFFSET 0 0 0
                }
              }
            }
          }
        }
      }
    }
  }
}
MOTION
Frames:	6
Frame Time:	0.0416667
19.1852 77.3424 -12.6245 112.327 -35.2486 118.087 -177.438 37.507 80.1874 -74.3123 15.5421 3.11176 57.8586 5.03742 19.8704 35.0019 2.51434 1.84517 175.141 33.1052 76.9369 -76.4524 -10.85 -3.23478 65.1947 2.50515 13.5101 34.6829 -8.51228 -6.56929 -0.47753 10.5186 -90.4687 5.83476 -1.15004 -0.894946 -5.83584 -1.18833 -0.843472 -28.372 -0.827912 -1.1992 -8.35934 -0.8279 -1.19919 98.0387 -44.9249 -88.8534 26.7892 -10.4763 15.3716 -4.10056 2.89061 -52.0594 -5.25389 -0.107425 -3.04005 -83.7274 -49.1657 88.0747 -0.444467 -22.779 -1.98743 -6.83485 6.10188 -11.8064 11.7506 -1.12446 -12.6588 6.90578 7.34003 -20.0061 -16.3032 6.91003 34.3034 
19.0622 75.8271 0.904358 102.213 -19.1691 112.506 179.09 42.2097 85.3288 -87.6595 22.1894 5.11994 60.3712 11.3665 23.4958 44.5245 6.8635 4.95165 177.078 26.0176 74.4051 -45.2887 -20.8343 -2.97742 58.9799 11.9463 19.055 40.8379 -17.7714 -6.81664 -0.843508 10.7558 -91.2602 5.33646 -2.20875 -2.42344 -6.33476 -2.31323 -2.32392 -28.8585 -1.3787 -2.97483 -8.8459 -1.37869 -2.97484 98.8321 -46.5669 -87.414 27.8215 -8.09636 21.4665 -6.42616 -1.52781 -46.5344 -4.79533 -0.109191 -3.80257 -84.9364 -49.5214 86.278 -1.95597 -22.79 -26.5856 -7.93313 -2.10426 -16.0167 8.62666 -1.00358 -13.8371 9.0513 9.16347 -24.1993 -19.1576 7.45514 44.5285 
16.5886 72.9336 13.3995 97.305 -2.69885 108.768 -178.62 49.6323 85.9451 -95.2905 20.7296 5.32409 62.2342 13.6255 21.1308 46.6661 8.17089 7.52292 173.149 29.3815 75.8852 -58.7623 -19.6525 -1.07349 62.52 6.28153 11.8344 43.526 -20.6717 -3.78448 -1.17371 11.3421 -91.7602 4.12609 -3.05632 -3.43197 -7.54545 -3.20432 -3.29424 -30.0571 -1.88463 -4.19082 -10.0445 -1.88463 -4.19082 99.3556 -47.0646 -86.5362 29.5554 -12.4543 21.3955 -13.9891 -8.50284 -43.8364 0.811646 0.00833816 -2.95632 -85.8519 -46.5947 84.4329 -3.49448 -18.6315 -37.2832 -4.83054 2.98399 -40.894 2.64231 -0.672808 -18.0277 17.7707 10.5127 -27.1686 -21.9965 9.48707 49.3053 
15.1695 72.7784 22.5045 91.0754 5.87669 108.484 -160.855 55.4628 74.6832 -91.2386 19.2091 2.41221 62.2212 12.1069 18.7398 44.6766 7.23157 7.70313 170.269 31.7436 81.8276 -66.0194 -14.1091 -0.0567585 70.4927 -6.02577 8.72485 46.9805 -25.9902 -5.04097 -1.24975 11.7275 -92.4571 3.31784 -3.47275 -4.82453 -8.35685 -3.68148 -4.66735 -30.8338 -1.86489 -5.64278 -10.8212 -1.86491 -5.64278 97.8912 -48.4989 -88.768 15.1429 -15.2778 1.96217 -7.32921 -17.554 -25.1835 -1.63996 -0.0328023 -4.4977 -86.752 -46.1535 82.9584 -10.6017 -14.231 -44.3791 -1.61019 3.54758 -51.6949 1.76901 -0.65216 -19.8091 20.7155 11.9023 -30.7456 -21.0906 11.7928 57.4646 
14.8463 74.2342 28.1901 85.7322 7.24218 106.547 -144.593 54.1551 63.609 -84.9019 12.1403 -0.752621 61.0396 9.47652 16.2239 47.5196 8.1731 4.44146 168.989 38.2388 84.3931 -70.0282 -7.69186 -0.011542 73.794 -7.09215 13.5356 45.2889 -23.8267 -5.60504 -1.20925 11.4759 -92.406 3.82744 -3.38248 -4.7072 -7.84709 -3.58617 -4.5541 -30.3269 -1.81386 -5.50391 -10.3142 -1.81386 -5.50391 97.5605 -50.5244 -89.1041 3.74507 -7.29593 -21.0566 4.4502 -23.0048 -5.80872 -10.0852 -0.383199 -0.505383 -88.5312 -51.0312 81.1189 -12.4671 -11.0663 -43.0755 -2.19652 8.5375 -38.8793 3.08803 -0.779892 -18.7888 18.7226 13.8012 -29.8103 -21.8891 12.507 56.7452 
15.8047 75.0531 31.7166 85.0432 6.62623 104.757 -147.539 55.2521 65.3857 -86.5076 10.5492 0.256332 60.584 9.70902 18.3062 55.4914 12.3852 6.97426 170.124 37.8105 86.2359 -69.8648 -8.44211 -0.285834 74.7043 -12.2803 8.19609 45.9166 -25.2835 -6.94843 -0.702417 11.6147 -92.1201 3.58328 -2.2504 -4.14993 -8.09205 -2.43074 -4.04709 -30.5774 -0.900734 -4.63336 -10.5647 -0.900716 -4.63336 96.9776 -45.4079 -90.5602 6.06013 -6.41078 -33.5914 3.81098 -21.5505 -6.18294 -8.41833 -0.404217 0.385064 -89.3449 -54.8947 80.6611 -20.076 -16.3511 -47.2063 -2.71052 13.7019 -9.58838 9.22413 -1.17409 -15.389 18.8226 14.8032 -29.0142 -18.9345 14.7679 57.1712 
